# xmcd CD database file
#
# Track frame offsets:
#	150
#	31272
#	61415
#	102215
#	131400
#	160115
#	191485
#	228290
#
# Disc length: 3482 seconds
#
# Revision: 0
# Processed by: cddbd v1.5.1PL2 Copyright (c) Steve Scherf et al.
# Submitted via: CDex 1.60beta1
#
DISCID=5c0d9808
DTITLE=辛島文雄 - Great Time
DYEAR=2006
DGENRE=Jazz
TTITLE0=Like Blues For J.D.
TTITLE1=Quiet Moment
TTITLE2=Just Enough
TTITLE3=Those Years With Elvin
TTITLE4=Brilliant Darkness
TTITLE5=I Fall In Love Too Easily
TTITLE6=Stillness
TTITLE7=Straight Up And Down
EXTD=YEAR: 2006
EXTT0=
EXTT1=
EXTT2=
EXTT3=
EXTT4=
EXTT5=
EXTT6=
EXTT7=
PLAYORDER=
